<?xml version="1.0" encoding="UTF-8" standalone="no"?>
<!DOCTYPE svg PUBLIC "-//W3C//DTD SVG 1.1//EN" "http://www.w3.org/Graphics/SVG/1.1/DTD/svg11.dtd">
<svg width="100%" height="100%" viewBox="0 0 2481 1749" version="1.1" xmlns="http://www.w3.org/2000/svg" xmlns:xlink="http://www.w3.org/1999/xlink" xml:space="preserve" xmlns:serif="http://www.serif.com/" style="fill-rule:evenodd;clip-rule:evenodd;stroke-linejoin:round;stroke-miterlimit:2;">
    <g transform="matrix(0.750474,0,0,0.634937,219.963,-233.568)">
        <rect x="267.045" y="437.158" width="2037.1" height="1213.26" style="fill:rgb(235,235,235);"/>
    </g>
    <g transform="matrix(0.263665,0,0,0.0802879,383.029,35.8834)">
        <rect x="267.045" y="437.158" width="2037.1" height="1213.26" style="fill:rgb(166,166,166);"/>
    </g>
    <g transform="matrix(0.135159,0,0,0.0802879,984.991,35.684)">
        <rect x="267.045" y="437.158" width="2037.1" height="1213.26" style="fill:rgb(102,102,102);"/>
    </g>
    <g transform="matrix(0.135159,0,0,0.0802879,1290.85,35.8834)">
        <rect x="267.045" y="437.158" width="2037.1" height="1213.26" style="fill:rgb(58,58,58);"/>
    </g>
    <g transform="matrix(0.135159,0,0,0.0802879,1596.72,35.684)">
        <rect x="267.045" y="437.158" width="2037.1" height="1213.26" style="fill:rgb(166,166,166);"/>
    </g>
    <g transform="matrix(0.263665,0,0,0.0802879,383.029,159.478)">
        <rect x="267.045" y="437.158" width="2037.1" height="1213.26" style="fill:rgb(166,166,166);"/>
    </g>
    <g transform="matrix(0.135159,0,0,0.0802879,984.991,159.278)">
        <rect x="267.045" y="437.158" width="2037.1" height="1213.26" style="fill:rgb(102,102,102);"/>
    </g>
    <g transform="matrix(0.135159,0,0,0.0802879,1290.85,159.478)">
        <rect x="267.045" y="437.158" width="2037.1" height="1213.26" style="fill:rgb(58,58,58);"/>
    </g>
    <g transform="matrix(0.135159,0,0,0.0802879,1596.72,159.278)">
        <rect x="267.045" y="437.158" width="2037.1" height="1213.26" style="fill:rgb(166,166,166);"/>
    </g>
    <g transform="matrix(0.263665,0,0,0.0802879,383.029,283.272)">
        <rect x="267.045" y="437.158" width="2037.1" height="1213.26" style="fill:rgb(166,166,166);"/>
    </g>
    <g transform="matrix(0.135159,0,0,0.0802879,984.991,283.072)">
        <rect x="267.045" y="437.158" width="2037.1" height="1213.26" style="fill:rgb(102,102,102);"/>
    </g>
    <g transform="matrix(0.135159,0,0,0.0802879,1290.85,283.272)">
        <rect x="267.045" y="437.158" width="2037.1" height="1213.26" style="fill:rgb(58,58,58);"/>
    </g>
    <g transform="matrix(0.135159,0,0,0.0802879,1596.72,283.072)">
        <rect x="267.045" y="437.158" width="2037.1" height="1213.26" style="fill:rgb(166,166,166);"/>
    </g>
    <g transform="matrix(0.263665,0,0,0.0802879,383.029,406.866)">
        <rect x="267.045" y="437.158" width="2037.1" height="1213.26" style="fill:rgb(166,166,166);"/>
    </g>
    <g transform="matrix(0.135159,0,0,0.0802879,984.991,406.667)">
        <rect x="267.045" y="437.158" width="2037.1" height="1213.26" style="fill:rgb(102,102,102);"/>
    </g>
    <g transform="matrix(0.135159,0,0,0.0802879,1290.85,406.866)">
        <rect x="267.045" y="437.158" width="2037.1" height="1213.26" style="fill:rgb(58,58,58);"/>
    </g>
    <g transform="matrix(0.135159,0,0,0.0802879,1596.72,406.667)">
        <rect x="267.045" y="437.158" width="2037.1" height="1213.26" style="fill:rgb(166,166,166);"/>
    </g>
    <g transform="matrix(0.263665,0,0,0.0802879,383.029,530.859)">
        <rect x="267.045" y="437.158" width="2037.1" height="1213.26" style="fill:rgb(166,166,166);"/>
    </g>
    <g transform="matrix(0.135159,0,0,0.0802879,984.991,530.66)">
        <rect x="267.045" y="437.158" width="2037.1" height="1213.26" style="fill:rgb(102,102,102);"/>
    </g>
    <g transform="matrix(0.135159,0,0,0.0802879,1290.85,530.859)">
        <rect x="267.045" y="437.158" width="2037.1" height="1213.26" style="fill:rgb(58,58,58);"/>
    </g>
    <g transform="matrix(0.135159,0,0,0.0802879,1596.72,530.66)">
        <rect x="267.045" y="437.158" width="2037.1" height="1213.26" style="fill:rgb(166,166,166);"/>
    </g>
    <g transform="matrix(0.263665,0,0,0.0802879,383.029,655.052)">
        <rect x="267.045" y="437.158" width="2037.1" height="1213.26" style="fill:rgb(166,166,166);"/>
    </g>
    <g transform="matrix(0.135159,0,0,0.0802879,984.991,654.853)">
        <rect x="267.045" y="437.158" width="2037.1" height="1213.26" style="fill:rgb(102,102,102);"/>
    </g>
    <g transform="matrix(0.135159,0,0,0.0802879,1290.85,655.052)">
        <rect x="267.045" y="437.158" width="2037.1" height="1213.26" style="fill:rgb(58,58,58);"/>
    </g>
    <g transform="matrix(0.135159,0,0,0.0802879,1596.72,654.853)">
        <rect x="267.045" y="437.158" width="2037.1" height="1213.26" style="fill:rgb(166,166,166);"/>
    </g>
    <g transform="matrix(-0.63376,0,0,0.634937,2610.27,655.414)">
        <rect x="267.045" y="437.158" width="2037.1" height="1213.26" style="fill:rgb(235,235,235);"/>
    </g>
    <g transform="matrix(-0.150147,0,0,0.0802879,2450.59,924.865)">
        <rect x="267.045" y="437.158" width="2037.1" height="1213.26" style="fill:rgb(166,166,166);"/>
    </g>
    <g transform="matrix(-0.135159,0,0,0.0802879,2110.2,924.666)">
        <rect x="267.045" y="437.158" width="2037.1" height="1213.26" style="fill:rgb(166,166,166);"/>
    </g>
    <g transform="matrix(-0.135159,0,0,0.0802879,1804.33,924.865)">
        <rect x="267.045" y="437.158" width="2037.1" height="1213.26" style="fill:rgb(166,166,166);"/>
    </g>
    <g transform="matrix(-0.135159,0,0,0.0802879,1498.47,924.666)">
        <rect x="267.045" y="437.158" width="2037.1" height="1213.26" style="fill:rgb(58,58,58);"/>
    </g>
    <g transform="matrix(-0.150147,0,0,0.0802879,2450.59,1048.46)">
        <rect x="267.045" y="437.158" width="2037.1" height="1213.26" style="fill:rgb(166,166,166);"/>
    </g>
    <g transform="matrix(-0.135159,0,0,0.0802879,2110.2,1048.26)">
        <rect x="267.045" y="437.158" width="2037.1" height="1213.26" style="fill:rgb(166,166,166);"/>
    </g>
    <g transform="matrix(-0.135159,0,0,0.0802879,1804.33,1048.46)">
        <rect x="267.045" y="437.158" width="2037.1" height="1213.26" style="fill:rgb(166,166,166);"/>
    </g>
    <g transform="matrix(-0.135159,0,0,0.0802879,1498.47,1048.26)">
        <rect x="267.045" y="437.158" width="2037.1" height="1213.26" style="fill:rgb(58,58,58);"/>
    </g>
    <g transform="matrix(-0.150147,0,0,0.0802879,2450.59,1172.25)">
        <rect x="267.045" y="437.158" width="2037.1" height="1213.26" style="fill:rgb(166,166,166);"/>
    </g>
    <g transform="matrix(-0.135159,0,0,0.0802879,2110.2,1172.05)">
        <rect x="267.045" y="437.158" width="2037.1" height="1213.26" style="fill:rgb(166,166,166);"/>
    </g>
    <g transform="matrix(-0.135159,0,0,0.0802879,1804.33,1172.25)">
        <rect x="267.045" y="437.158" width="2037.1" height="1213.26" style="fill:rgb(166,166,166);"/>
    </g>
    <g transform="matrix(-0.135159,0,0,0.0802879,1498.47,1172.05)">
        <rect x="267.045" y="437.158" width="2037.1" height="1213.26" style="fill:rgb(58,58,58);"/>
    </g>
    <g transform="matrix(-0.150147,0,0,0.0802879,2450.59,1295.85)">
        <rect x="267.045" y="437.158" width="2037.1" height="1213.26" style="fill:rgb(166,166,166);"/>
    </g>
    <g transform="matrix(-0.135159,0,0,0.0802879,2110.2,1295.65)">
        <rect x="267.045" y="437.158" width="2037.1" height="1213.26" style="fill:rgb(166,166,166);"/>
    </g>
    <g transform="matrix(-0.135159,0,0,0.0802879,1804.33,1295.85)">
        <rect x="267.045" y="437.158" width="2037.1" height="1213.26" style="fill:rgb(166,166,166);"/>
    </g>
    <g transform="matrix(-0.135159,0,0,0.0802879,1498.47,1295.65)">
        <rect x="267.045" y="437.158" width="2037.1" height="1213.26" style="fill:rgb(58,58,58);"/>
    </g>
    <g transform="matrix(-0.150147,0,0,0.0802879,2450.59,1419.84)">
        <rect x="267.045" y="437.158" width="2037.1" height="1213.26" style="fill:rgb(166,166,166);"/>
    </g>
    <g transform="matrix(-0.135159,0,0,0.0802879,2110.2,1419.64)">
        <rect x="267.045" y="437.158" width="2037.1" height="1213.26" style="fill:rgb(166,166,166);"/>
    </g>
    <g transform="matrix(-0.135159,0,0,0.0802879,1804.33,1419.84)">
        <rect x="267.045" y="437.158" width="2037.1" height="1213.26" style="fill:rgb(166,166,166);"/>
    </g>
    <g transform="matrix(-0.135159,0,0,0.0802879,1498.47,1419.64)">
        <rect x="267.045" y="437.158" width="2037.1" height="1213.26" style="fill:rgb(58,58,58);"/>
    </g>
    <g transform="matrix(-0.150147,0,0,0.0802879,2450.59,1544.03)">
        <rect x="267.045" y="437.158" width="2037.1" height="1213.26" style="fill:rgb(166,166,166);"/>
    </g>
    <g transform="matrix(-0.135159,0,0,0.0802879,2110.2,1543.83)">
        <rect x="267.045" y="437.158" width="2037.1" height="1213.26" style="fill:rgb(166,166,166);"/>
    </g>
    <g transform="matrix(-0.135159,0,0,0.0802879,1804.33,1544.03)">
        <rect x="267.045" y="437.158" width="2037.1" height="1213.26" style="fill:rgb(166,166,166);"/>
    </g>
    <g transform="matrix(-0.135159,0,0,0.0802879,1498.47,1543.83)">
        <rect x="267.045" y="437.158" width="2037.1" height="1213.26" style="fill:rgb(58,58,58);"/>
    </g>
    <g transform="matrix(-0.468625,0,0,0.634937,1187.78,584.432)">
        <rect x="267.045" y="437.158" width="2037.1" height="1213.26" style="fill:rgb(235,235,235);"/>
    </g>
    <g transform="matrix(-0.135159,0,0,0.0802879,1068.2,853.684)">
        <rect x="267.045" y="437.158" width="2037.1" height="1213.26" style="fill:rgb(166,166,166);"/>
    </g>
    <g transform="matrix(-0.135159,0,0,0.0802879,762.331,853.883)">
        <rect x="267.045" y="437.158" width="2037.1" height="1213.26" style="fill:rgb(166,166,166);"/>
    </g>
    <g transform="matrix(-0.135159,0,0,0.0802879,456.467,853.684)">
        <rect x="267.045" y="437.158" width="2037.1" height="1213.26" style="fill:rgb(102,102,102);"/>
    </g>
    <g transform="matrix(-0.135159,0,0,0.0802879,1068.2,977.278)">
        <rect x="267.045" y="437.158" width="2037.1" height="1213.26" style="fill:rgb(166,166,166);"/>
    </g>
    <g transform="matrix(-0.135159,0,0,0.0802879,762.331,977.478)">
        <rect x="267.045" y="437.158" width="2037.1" height="1213.26" style="fill:rgb(166,166,166);"/>
    </g>
    <g transform="matrix(-0.135159,0,0,0.0802879,456.467,977.278)">
        <rect x="267.045" y="437.158" width="2037.1" height="1213.26" style="fill:rgb(102,102,102);"/>
    </g>
    <g transform="matrix(-0.135159,0,0,0.0802879,1068.2,1101.07)">
        <rect x="267.045" y="437.158" width="2037.1" height="1213.26" style="fill:rgb(166,166,166);"/>
    </g>
    <g transform="matrix(-0.135159,0,0,0.0802879,762.331,1101.27)">
        <rect x="267.045" y="437.158" width="2037.1" height="1213.26" style="fill:rgb(166,166,166);"/>
    </g>
    <g transform="matrix(-0.135159,0,0,0.0802879,456.467,1101.07)">
        <rect x="267.045" y="437.158" width="2037.1" height="1213.26" style="fill:rgb(102,102,102);"/>
    </g>
    <g transform="matrix(-0.135159,0,0,0.0802879,1068.2,1224.67)">
        <rect x="267.045" y="437.158" width="2037.1" height="1213.26" style="fill:rgb(166,166,166);"/>
    </g>
    <g transform="matrix(-0.135159,0,0,0.0802879,762.331,1224.87)">
        <rect x="267.045" y="437.158" width="2037.1" height="1213.26" style="fill:rgb(166,166,166);"/>
    </g>
    <g transform="matrix(-0.135159,0,0,0.0802879,456.467,1224.67)">
        <rect x="267.045" y="437.158" width="2037.1" height="1213.26" style="fill:rgb(102,102,102);"/>
    </g>
    <g transform="matrix(-0.135159,0,0,0.0802879,1068.2,1348.66)">
        <rect x="267.045" y="437.158" width="2037.1" height="1213.26" style="fill:rgb(166,166,166);"/>
    </g>
    <g transform="matrix(-0.135159,0,0,0.0802879,762.331,1348.86)">
        <rect x="267.045" y="437.158" width="2037.1" height="1213.26" style="fill:rgb(166,166,166);"/>
    </g>
    <g transform="matrix(-0.135159,0,0,0.0802879,456.467,1348.66)">
        <rect x="267.045" y="437.158" width="2037.1" height="1213.26" style="fill:rgb(102,102,102);"/>
    </g>
    <g transform="matrix(-0.135159,0,0,0.0802879,1068.2,1472.85)">
        <rect x="267.045" y="437.158" width="2037.1" height="1213.26" style="fill:rgb(166,166,166);"/>
    </g>
    <g transform="matrix(-0.135159,0,0,0.0802879,762.331,1473.05)">
        <rect x="267.045" y="437.158" width="2037.1" height="1213.26" style="fill:rgb(166,166,166);"/>
    </g>
    <g transform="matrix(-0.135159,0,0,0.0802879,456.467,1472.85)">
        <rect x="267.045" y="437.158" width="2037.1" height="1213.26" style="fill:rgb(102,102,102);"/>
    </g>
</svg>
