<?xml version="1.0" encoding="UTF-8" standalone="no"?>
<!DOCTYPE svg PUBLIC "-//W3C//DTD SVG 1.1//EN" "http://www.w3.org/Graphics/SVG/1.1/DTD/svg11.dtd">
<svg width="100%" height="100%" viewBox="0 0 2481 1749" version="1.1" xmlns="http://www.w3.org/2000/svg" xmlns:xlink="http://www.w3.org/1999/xlink" xml:space="preserve" xmlns:serif="http://www.serif.com/" style="fill-rule:evenodd;clip-rule:evenodd;stroke-linejoin:round;stroke-miterlimit:2;">
    <g transform="matrix(0.470094,0,0,0.397722,-73.5364,-69.3668)">
        <rect x="267.045" y="437.158" width="2037.1" height="1213.26" style="fill:rgb(235,235,235);"/>
    </g>
    <g transform="matrix(0.165159,0,0,0.050292,28.6077,99.4162)">
        <rect x="267.045" y="437.158" width="2037.1" height="1213.26" style="fill:rgb(166,166,166);"/>
    </g>
    <g transform="matrix(0.0846629,0,0,0.050292,405.674,99.2913)">
        <rect x="267.045" y="437.158" width="2037.1" height="1213.26" style="fill:rgb(102,102,102);"/>
    </g>
    <g transform="matrix(0.0846629,0,0,0.050292,597.266,99.4162)">
        <rect x="267.045" y="437.158" width="2037.1" height="1213.26" style="fill:rgb(58,58,58);"/>
    </g>
    <g transform="matrix(0.0846629,0,0,0.050292,788.858,99.2913)">
        <rect x="267.045" y="437.158" width="2037.1" height="1213.26" style="fill:rgb(166,166,166);"/>
    </g>
    <g transform="matrix(0.165159,0,0,0.050292,28.6077,176.835)">
        <rect x="267.045" y="437.158" width="2037.1" height="1213.26" style="fill:rgb(166,166,166);"/>
    </g>
    <g transform="matrix(0.0846629,0,0,0.050292,405.674,176.71)">
        <rect x="267.045" y="437.158" width="2037.1" height="1213.26" style="fill:rgb(102,102,102);"/>
    </g>
    <g transform="matrix(0.0846629,0,0,0.050292,597.266,176.835)">
        <rect x="267.045" y="437.158" width="2037.1" height="1213.26" style="fill:rgb(58,58,58);"/>
    </g>
    <g transform="matrix(0.0846629,0,0,0.050292,788.858,176.71)">
        <rect x="267.045" y="437.158" width="2037.1" height="1213.26" style="fill:rgb(166,166,166);"/>
    </g>
    <g transform="matrix(0.165159,0,0,0.050292,28.6077,254.379)">
        <rect x="267.045" y="437.158" width="2037.1" height="1213.26" style="fill:rgb(166,166,166);"/>
    </g>
    <g transform="matrix(0.0846629,0,0,0.050292,405.674,254.254)">
        <rect x="267.045" y="437.158" width="2037.1" height="1213.26" style="fill:rgb(102,102,102);"/>
    </g>
    <g transform="matrix(0.0846629,0,0,0.050292,597.266,254.379)">
        <rect x="267.045" y="437.158" width="2037.1" height="1213.26" style="fill:rgb(58,58,58);"/>
    </g>
    <g transform="matrix(0.0846629,0,0,0.050292,788.858,254.254)">
        <rect x="267.045" y="437.158" width="2037.1" height="1213.26" style="fill:rgb(166,166,166);"/>
    </g>
    <g transform="matrix(0.165159,0,0,0.050292,28.6077,331.798)">
        <rect x="267.045" y="437.158" width="2037.1" height="1213.26" style="fill:rgb(166,166,166);"/>
    </g>
    <g transform="matrix(0.0846629,0,0,0.050292,405.674,331.673)">
        <rect x="267.045" y="437.158" width="2037.1" height="1213.26" style="fill:rgb(102,102,102);"/>
    </g>
    <g transform="matrix(0.0846629,0,0,0.050292,597.266,331.798)">
        <rect x="267.045" y="437.158" width="2037.1" height="1213.26" style="fill:rgb(58,58,58);"/>
    </g>
    <g transform="matrix(0.0846629,0,0,0.050292,788.858,331.673)">
        <rect x="267.045" y="437.158" width="2037.1" height="1213.26" style="fill:rgb(166,166,166);"/>
    </g>
    <g transform="matrix(0.165159,0,0,0.050292,28.6077,409.467)">
        <rect x="267.045" y="437.158" width="2037.1" height="1213.26" style="fill:rgb(166,166,166);"/>
    </g>
    <g transform="matrix(0.0846629,0,0,0.050292,405.674,409.342)">
        <rect x="267.045" y="437.158" width="2037.1" height="1213.26" style="fill:rgb(102,102,102);"/>
    </g>
    <g transform="matrix(0.0846629,0,0,0.050292,597.266,409.467)">
        <rect x="267.045" y="437.158" width="2037.1" height="1213.26" style="fill:rgb(58,58,58);"/>
    </g>
    <g transform="matrix(0.0846629,0,0,0.050292,788.858,409.342)">
        <rect x="267.045" y="437.158" width="2037.1" height="1213.26" style="fill:rgb(166,166,166);"/>
    </g>
    <g transform="matrix(0.165159,0,0,0.050292,28.6077,487.261)">
        <rect x="267.045" y="437.158" width="2037.1" height="1213.26" style="fill:rgb(166,166,166);"/>
    </g>
    <g transform="matrix(0.0846629,0,0,0.050292,405.674,487.136)">
        <rect x="267.045" y="437.158" width="2037.1" height="1213.26" style="fill:rgb(102,102,102);"/>
    </g>
    <g transform="matrix(0.0846629,0,0,0.050292,597.266,487.261)">
        <rect x="267.045" y="437.158" width="2037.1" height="1213.26" style="fill:rgb(58,58,58);"/>
    </g>
    <g transform="matrix(0.0846629,0,0,0.050292,788.858,487.136)">
        <rect x="267.045" y="437.158" width="2037.1" height="1213.26" style="fill:rgb(166,166,166);"/>
    </g>
    <g transform="matrix(0.470094,0,0,0.397722,213.308,515.792)">
        <rect x="267.045" y="437.158" width="2037.1" height="1213.26" style="fill:rgb(235,235,235);"/>
    </g>
    <g transform="matrix(0.165159,0,0,0.050292,315.452,684.575)">
        <rect x="267.045" y="437.158" width="2037.1" height="1213.26" style="fill:rgb(166,166,166);"/>
    </g>
    <g transform="matrix(0.0846629,0,0,0.050292,692.518,684.45)">
        <rect x="267.045" y="437.158" width="2037.1" height="1213.26" style="fill:rgb(102,102,102);"/>
    </g>
    <g transform="matrix(0.0846629,0,0,0.050292,884.11,684.575)">
        <rect x="267.045" y="437.158" width="2037.1" height="1213.26" style="fill:rgb(58,58,58);"/>
    </g>
    <g transform="matrix(0.0846629,0,0,0.050292,1075.7,684.45)">
        <rect x="267.045" y="437.158" width="2037.1" height="1213.26" style="fill:rgb(166,166,166);"/>
    </g>
    <g transform="matrix(0.165159,0,0,0.050292,315.452,761.994)">
        <rect x="267.045" y="437.158" width="2037.1" height="1213.26" style="fill:rgb(166,166,166);"/>
    </g>
    <g transform="matrix(0.0846629,0,0,0.050292,692.518,761.869)">
        <rect x="267.045" y="437.158" width="2037.1" height="1213.26" style="fill:rgb(102,102,102);"/>
    </g>
    <g transform="matrix(0.0846629,0,0,0.050292,884.11,761.994)">
        <rect x="267.045" y="437.158" width="2037.1" height="1213.26" style="fill:rgb(58,58,58);"/>
    </g>
    <g transform="matrix(0.0846629,0,0,0.050292,1075.7,761.869)">
        <rect x="267.045" y="437.158" width="2037.1" height="1213.26" style="fill:rgb(166,166,166);"/>
    </g>
    <g transform="matrix(0.165159,0,0,0.050292,315.452,839.538)">
        <rect x="267.045" y="437.158" width="2037.1" height="1213.26" style="fill:rgb(166,166,166);"/>
    </g>
    <g transform="matrix(0.0846629,0,0,0.050292,692.518,839.413)">
        <rect x="267.045" y="437.158" width="2037.1" height="1213.26" style="fill:rgb(102,102,102);"/>
    </g>
    <g transform="matrix(0.0846629,0,0,0.050292,884.11,839.538)">
        <rect x="267.045" y="437.158" width="2037.1" height="1213.26" style="fill:rgb(58,58,58);"/>
    </g>
    <g transform="matrix(0.0846629,0,0,0.050292,1075.7,839.413)">
        <rect x="267.045" y="437.158" width="2037.1" height="1213.26" style="fill:rgb(166,166,166);"/>
    </g>
    <g transform="matrix(0.165159,0,0,0.050292,315.452,916.957)">
        <rect x="267.045" y="437.158" width="2037.1" height="1213.26" style="fill:rgb(166,166,166);"/>
    </g>
    <g transform="matrix(0.0846629,0,0,0.050292,692.518,916.832)">
        <rect x="267.045" y="437.158" width="2037.1" height="1213.26" style="fill:rgb(102,102,102);"/>
    </g>
    <g transform="matrix(0.0846629,0,0,0.050292,884.11,916.957)">
        <rect x="267.045" y="437.158" width="2037.1" height="1213.26" style="fill:rgb(58,58,58);"/>
    </g>
    <g transform="matrix(0.0846629,0,0,0.050292,1075.7,916.832)">
        <rect x="267.045" y="437.158" width="2037.1" height="1213.26" style="fill:rgb(166,166,166);"/>
    </g>
    <g transform="matrix(0.165159,0,0,0.050292,315.452,994.626)">
        <rect x="267.045" y="437.158" width="2037.1" height="1213.26" style="fill:rgb(166,166,166);"/>
    </g>
    <g transform="matrix(0.0846629,0,0,0.050292,692.518,994.501)">
        <rect x="267.045" y="437.158" width="2037.1" height="1213.26" style="fill:rgb(102,102,102);"/>
    </g>
    <g transform="matrix(0.0846629,0,0,0.050292,884.11,994.626)">
        <rect x="267.045" y="437.158" width="2037.1" height="1213.26" style="fill:rgb(58,58,58);"/>
    </g>
    <g transform="matrix(0.0846629,0,0,0.050292,1075.7,994.501)">
        <rect x="267.045" y="437.158" width="2037.1" height="1213.26" style="fill:rgb(166,166,166);"/>
    </g>
    <g transform="matrix(0.165159,0,0,0.050292,315.452,1072.42)">
        <rect x="267.045" y="437.158" width="2037.1" height="1213.26" style="fill:rgb(166,166,166);"/>
    </g>
    <g transform="matrix(0.0846629,0,0,0.050292,692.518,1072.3)">
        <rect x="267.045" y="437.158" width="2037.1" height="1213.26" style="fill:rgb(102,102,102);"/>
    </g>
    <g transform="matrix(0.0846629,0,0,0.050292,884.11,1072.42)">
        <rect x="267.045" y="437.158" width="2037.1" height="1213.26" style="fill:rgb(58,58,58);"/>
    </g>
    <g transform="matrix(0.0846629,0,0,0.050292,1075.7,1072.3)">
        <rect x="267.045" y="437.158" width="2037.1" height="1213.26" style="fill:rgb(166,166,166);"/>
    </g>
    <g transform="matrix(0.470094,0,0,0.397722,-73.5364,1079.64)">
        <rect x="267.045" y="437.158" width="2037.1" height="1213.26" style="fill:rgb(235,235,235);"/>
    </g>
    <g transform="matrix(0.165159,0,0,0.050292,28.6077,1248.42)">
        <rect x="267.045" y="437.158" width="2037.1" height="1213.26" style="fill:rgb(166,166,166);"/>
    </g>
    <g transform="matrix(0.0846629,0,0,0.050292,405.674,1248.3)">
        <rect x="267.045" y="437.158" width="2037.1" height="1213.26" style="fill:rgb(102,102,102);"/>
    </g>
    <g transform="matrix(0.0846629,0,0,0.050292,597.266,1248.42)">
        <rect x="267.045" y="437.158" width="2037.1" height="1213.26" style="fill:rgb(58,58,58);"/>
    </g>
    <g transform="matrix(0.0846629,0,0,0.050292,788.858,1248.3)">
        <rect x="267.045" y="437.158" width="2037.1" height="1213.26" style="fill:rgb(166,166,166);"/>
    </g>
    <g transform="matrix(0.165159,0,0,0.050292,28.6077,1325.84)">
        <rect x="267.045" y="437.158" width="2037.1" height="1213.26" style="fill:rgb(166,166,166);"/>
    </g>
    <g transform="matrix(0.0846629,0,0,0.050292,405.674,1325.72)">
        <rect x="267.045" y="437.158" width="2037.1" height="1213.26" style="fill:rgb(102,102,102);"/>
    </g>
    <g transform="matrix(0.0846629,0,0,0.050292,597.266,1325.84)">
        <rect x="267.045" y="437.158" width="2037.1" height="1213.26" style="fill:rgb(58,58,58);"/>
    </g>
    <g transform="matrix(0.0846629,0,0,0.050292,788.858,1325.72)">
        <rect x="267.045" y="437.158" width="2037.1" height="1213.26" style="fill:rgb(166,166,166);"/>
    </g>
    <g transform="matrix(0.165159,0,0,0.050292,28.6077,1403.38)">
        <rect x="267.045" y="437.158" width="2037.1" height="1213.26" style="fill:rgb(166,166,166);"/>
    </g>
    <g transform="matrix(0.0846629,0,0,0.050292,405.674,1403.26)">
        <rect x="267.045" y="437.158" width="2037.1" height="1213.26" style="fill:rgb(102,102,102);"/>
    </g>
    <g transform="matrix(0.0846629,0,0,0.050292,597.266,1403.38)">
        <rect x="267.045" y="437.158" width="2037.1" height="1213.26" style="fill:rgb(58,58,58);"/>
    </g>
    <g transform="matrix(0.0846629,0,0,0.050292,788.858,1403.26)">
        <rect x="267.045" y="437.158" width="2037.1" height="1213.26" style="fill:rgb(166,166,166);"/>
    </g>
    <g transform="matrix(0.165159,0,0,0.050292,28.6077,1480.8)">
        <rect x="267.045" y="437.158" width="2037.1" height="1213.26" style="fill:rgb(166,166,166);"/>
    </g>
    <g transform="matrix(0.0846629,0,0,0.050292,405.674,1480.68)">
        <rect x="267.045" y="437.158" width="2037.1" height="1213.26" style="fill:rgb(102,102,102);"/>
    </g>
    <g transform="matrix(0.0846629,0,0,0.050292,597.266,1480.8)">
        <rect x="267.045" y="437.158" width="2037.1" height="1213.26" style="fill:rgb(58,58,58);"/>
    </g>
    <g transform="matrix(0.0846629,0,0,0.050292,788.858,1480.68)">
        <rect x="267.045" y="437.158" width="2037.1" height="1213.26" style="fill:rgb(166,166,166);"/>
    </g>
    <g transform="matrix(0.165159,0,0,0.050292,28.6077,1558.47)">
        <rect x="267.045" y="437.158" width="2037.1" height="1213.26" style="fill:rgb(166,166,166);"/>
    </g>
    <g transform="matrix(0.0846629,0,0,0.050292,405.674,1558.35)">
        <rect x="267.045" y="437.158" width="2037.1" height="1213.26" style="fill:rgb(102,102,102);"/>
    </g>
    <g transform="matrix(0.0846629,0,0,0.050292,597.266,1558.47)">
        <rect x="267.045" y="437.158" width="2037.1" height="1213.26" style="fill:rgb(58,58,58);"/>
    </g>
    <g transform="matrix(0.0846629,0,0,0.050292,788.858,1558.35)">
        <rect x="267.045" y="437.158" width="2037.1" height="1213.26" style="fill:rgb(166,166,166);"/>
    </g>
    <g transform="matrix(0.165159,0,0,0.050292,28.6077,1636.27)">
        <rect x="267.045" y="437.158" width="2037.1" height="1213.26" style="fill:rgb(166,166,166);"/>
    </g>
    <g transform="matrix(0.0846629,0,0,0.050292,405.674,1636.14)">
        <rect x="267.045" y="437.158" width="2037.1" height="1213.26" style="fill:rgb(102,102,102);"/>
    </g>
    <g transform="matrix(0.0846629,0,0,0.050292,597.266,1636.27)">
        <rect x="267.045" y="437.158" width="2037.1" height="1213.26" style="fill:rgb(58,58,58);"/>
    </g>
    <g transform="matrix(0.0846629,0,0,0.050292,788.858,1636.14)">
        <rect x="267.045" y="437.158" width="2037.1" height="1213.26" style="fill:rgb(166,166,166);"/>
    </g>
    <g transform="matrix(0.470094,0,0,0.397722,1326.46,851.068)">
        <rect x="267.045" y="437.158" width="2037.1" height="1213.26" style="fill:rgb(235,235,235);"/>
    </g>
    <g transform="matrix(0.165159,0,0,0.050292,1428.61,1019.85)">
        <rect x="267.045" y="437.158" width="2037.1" height="1213.26" style="fill:rgb(166,166,166);"/>
    </g>
    <g transform="matrix(0.0846629,0,0,0.050292,1805.67,1019.73)">
        <rect x="267.045" y="437.158" width="2037.1" height="1213.26" style="fill:rgb(102,102,102);"/>
    </g>
    <g transform="matrix(0.0846629,0,0,0.050292,1997.27,1019.85)">
        <rect x="267.045" y="437.158" width="2037.1" height="1213.26" style="fill:rgb(58,58,58);"/>
    </g>
    <g transform="matrix(0.0846629,0,0,0.050292,2188.86,1019.73)">
        <rect x="267.045" y="437.158" width="2037.1" height="1213.26" style="fill:rgb(166,166,166);"/>
    </g>
    <g transform="matrix(0.165159,0,0,0.050292,1428.61,1097.27)">
        <rect x="267.045" y="437.158" width="2037.1" height="1213.26" style="fill:rgb(166,166,166);"/>
    </g>
    <g transform="matrix(0.0846629,0,0,0.050292,1805.67,1097.15)">
        <rect x="267.045" y="437.158" width="2037.1" height="1213.26" style="fill:rgb(102,102,102);"/>
    </g>
    <g transform="matrix(0.0846629,0,0,0.050292,1997.27,1097.27)">
        <rect x="267.045" y="437.158" width="2037.1" height="1213.26" style="fill:rgb(58,58,58);"/>
    </g>
    <g transform="matrix(0.0846629,0,0,0.050292,2188.86,1097.15)">
        <rect x="267.045" y="437.158" width="2037.1" height="1213.26" style="fill:rgb(166,166,166);"/>
    </g>
    <g transform="matrix(0.165159,0,0,0.050292,1428.61,1174.81)">
        <rect x="267.045" y="437.158" width="2037.1" height="1213.26" style="fill:rgb(166,166,166);"/>
    </g>
    <g transform="matrix(0.0846629,0,0,0.050292,1805.67,1174.69)">
        <rect x="267.045" y="437.158" width="2037.1" height="1213.26" style="fill:rgb(102,102,102);"/>
    </g>
    <g transform="matrix(0.0846629,0,0,0.050292,1997.27,1174.81)">
        <rect x="267.045" y="437.158" width="2037.1" height="1213.26" style="fill:rgb(58,58,58);"/>
    </g>
    <g transform="matrix(0.0846629,0,0,0.050292,2188.86,1174.69)">
        <rect x="267.045" y="437.158" width="2037.1" height="1213.26" style="fill:rgb(166,166,166);"/>
    </g>
    <g transform="matrix(0.165159,0,0,0.050292,1428.61,1252.23)">
        <rect x="267.045" y="437.158" width="2037.1" height="1213.26" style="fill:rgb(166,166,166);"/>
    </g>
    <g transform="matrix(0.0846629,0,0,0.050292,1805.67,1252.11)">
        <rect x="267.045" y="437.158" width="2037.1" height="1213.26" style="fill:rgb(102,102,102);"/>
    </g>
    <g transform="matrix(0.0846629,0,0,0.050292,1997.27,1252.23)">
        <rect x="267.045" y="437.158" width="2037.1" height="1213.26" style="fill:rgb(58,58,58);"/>
    </g>
    <g transform="matrix(0.0846629,0,0,0.050292,2188.86,1252.11)">
        <rect x="267.045" y="437.158" width="2037.1" height="1213.26" style="fill:rgb(166,166,166);"/>
    </g>
    <g transform="matrix(0.165159,0,0,0.050292,1428.61,1329.9)">
        <rect x="267.045" y="437.158" width="2037.1" height="1213.26" style="fill:rgb(166,166,166);"/>
    </g>
    <g transform="matrix(0.0846629,0,0,0.050292,1805.67,1329.78)">
        <rect x="267.045" y="437.158" width="2037.1" height="1213.26" style="fill:rgb(102,102,102);"/>
    </g>
    <g transform="matrix(0.0846629,0,0,0.050292,1997.27,1329.9)">
        <rect x="267.045" y="437.158" width="2037.1" height="1213.26" style="fill:rgb(58,58,58);"/>
    </g>
    <g transform="matrix(0.0846629,0,0,0.050292,2188.86,1329.78)">
        <rect x="267.045" y="437.158" width="2037.1" height="1213.26" style="fill:rgb(166,166,166);"/>
    </g>
    <g transform="matrix(0.165159,0,0,0.050292,1428.61,1407.7)">
        <rect x="267.045" y="437.158" width="2037.1" height="1213.26" style="fill:rgb(166,166,166);"/>
    </g>
    <g transform="matrix(0.0846629,0,0,0.050292,1805.67,1407.57)">
        <rect x="267.045" y="437.158" width="2037.1" height="1213.26" style="fill:rgb(102,102,102);"/>
    </g>
    <g transform="matrix(0.0846629,0,0,0.050292,1997.27,1407.7)">
        <rect x="267.045" y="437.158" width="2037.1" height="1213.26" style="fill:rgb(58,58,58);"/>
    </g>
    <g transform="matrix(0.0846629,0,0,0.050292,2188.86,1407.57)">
        <rect x="267.045" y="437.158" width="2037.1" height="1213.26" style="fill:rgb(166,166,166);"/>
    </g>
    <g transform="matrix(0.470094,0,0,0.397722,1254.46,79.4883)">
        <rect x="267.045" y="437.158" width="2037.1" height="1213.26" style="fill:rgb(235,235,235);"/>
    </g>
    <g transform="matrix(0.165159,0,0,0.050292,1356.61,248.271)">
        <rect x="267.045" y="437.158" width="2037.1" height="1213.26" style="fill:rgb(166,166,166);"/>
    </g>
    <g transform="matrix(0.0846629,0,0,0.050292,1733.67,248.146)">
        <rect x="267.045" y="437.158" width="2037.1" height="1213.26" style="fill:rgb(102,102,102);"/>
    </g>
    <g transform="matrix(0.0846629,0,0,0.050292,1925.27,248.271)">
        <rect x="267.045" y="437.158" width="2037.1" height="1213.26" style="fill:rgb(58,58,58);"/>
    </g>
    <g transform="matrix(0.0846629,0,0,0.050292,2116.86,248.146)">
        <rect x="267.045" y="437.158" width="2037.1" height="1213.26" style="fill:rgb(166,166,166);"/>
    </g>
    <g transform="matrix(0.165159,0,0,0.050292,1356.61,325.69)">
        <rect x="267.045" y="437.158" width="2037.1" height="1213.26" style="fill:rgb(166,166,166);"/>
    </g>
    <g transform="matrix(0.0846629,0,0,0.050292,1733.67,325.565)">
        <rect x="267.045" y="437.158" width="2037.1" height="1213.26" style="fill:rgb(102,102,102);"/>
    </g>
    <g transform="matrix(0.0846629,0,0,0.050292,1925.27,325.69)">
        <rect x="267.045" y="437.158" width="2037.1" height="1213.26" style="fill:rgb(58,58,58);"/>
    </g>
    <g transform="matrix(0.0846629,0,0,0.050292,2116.86,325.565)">
        <rect x="267.045" y="437.158" width="2037.1" height="1213.26" style="fill:rgb(166,166,166);"/>
    </g>
    <g transform="matrix(0.165159,0,0,0.050292,1356.61,403.234)">
        <rect x="267.045" y="437.158" width="2037.1" height="1213.26" style="fill:rgb(166,166,166);"/>
    </g>
    <g transform="matrix(0.0846629,0,0,0.050292,1733.67,403.109)">
        <rect x="267.045" y="437.158" width="2037.1" height="1213.26" style="fill:rgb(102,102,102);"/>
    </g>
    <g transform="matrix(0.0846629,0,0,0.050292,1925.27,403.234)">
        <rect x="267.045" y="437.158" width="2037.1" height="1213.26" style="fill:rgb(58,58,58);"/>
    </g>
    <g transform="matrix(0.0846629,0,0,0.050292,2116.86,403.109)">
        <rect x="267.045" y="437.158" width="2037.1" height="1213.26" style="fill:rgb(166,166,166);"/>
    </g>
    <g transform="matrix(0.165159,0,0,0.050292,1356.61,480.653)">
        <rect x="267.045" y="437.158" width="2037.1" height="1213.26" style="fill:rgb(166,166,166);"/>
    </g>
    <g transform="matrix(0.0846629,0,0,0.050292,1733.67,480.529)">
        <rect x="267.045" y="437.158" width="2037.1" height="1213.26" style="fill:rgb(102,102,102);"/>
    </g>
    <g transform="matrix(0.0846629,0,0,0.050292,1925.27,480.653)">
        <rect x="267.045" y="437.158" width="2037.1" height="1213.26" style="fill:rgb(58,58,58);"/>
    </g>
    <g transform="matrix(0.0846629,0,0,0.050292,2116.86,480.529)">
        <rect x="267.045" y="437.158" width="2037.1" height="1213.26" style="fill:rgb(166,166,166);"/>
    </g>
    <g transform="matrix(0.165159,0,0,0.050292,1356.61,558.322)">
        <rect x="267.045" y="437.158" width="2037.1" height="1213.26" style="fill:rgb(166,166,166);"/>
    </g>
    <g transform="matrix(0.0846629,0,0,0.050292,1733.67,558.197)">
        <rect x="267.045" y="437.158" width="2037.1" height="1213.26" style="fill:rgb(102,102,102);"/>
    </g>
    <g transform="matrix(0.0846629,0,0,0.050292,1925.27,558.322)">
        <rect x="267.045" y="437.158" width="2037.1" height="1213.26" style="fill:rgb(58,58,58);"/>
    </g>
    <g transform="matrix(0.0846629,0,0,0.050292,2116.86,558.197)">
        <rect x="267.045" y="437.158" width="2037.1" height="1213.26" style="fill:rgb(166,166,166);"/>
    </g>
    <g transform="matrix(0.165159,0,0,0.050292,1356.61,636.116)">
        <rect x="267.045" y="437.158" width="2037.1" height="1213.26" style="fill:rgb(166,166,166);"/>
    </g>
    <g transform="matrix(0.0846629,0,0,0.050292,1733.67,635.991)">
        <rect x="267.045" y="437.158" width="2037.1" height="1213.26" style="fill:rgb(102,102,102);"/>
    </g>
    <g transform="matrix(0.0846629,0,0,0.050292,1925.27,636.116)">
        <rect x="267.045" y="437.158" width="2037.1" height="1213.26" style="fill:rgb(58,58,58);"/>
    </g>
    <g transform="matrix(0.0846629,0,0,0.050292,2116.86,635.991)">
        <rect x="267.045" y="437.158" width="2037.1" height="1213.26" style="fill:rgb(166,166,166);"/>
    </g>
    <g transform="matrix(1,0,0,1,48.5246,-63.4702)">
        <g transform="matrix(66.6667,0,0,66.6667,1349.91,293.486)">
            <path d="M0.402,-0L0.402,-0.065C0.369,-0.014 0.321,0.012 0.257,0.012C0.216,0.012 0.178,0 0.143,-0.022C0.109,-0.045 0.082,-0.077 0.063,-0.118C0.044,-0.159 0.034,-0.206 0.034,-0.259C0.034,-0.311 0.043,-0.358 0.06,-0.4C0.077,-0.442 0.103,-0.474 0.138,-0.497C0.172,-0.519 0.211,-0.53 0.253,-0.53C0.285,-0.53 0.313,-0.524 0.337,-0.51C0.361,-0.497 0.381,-0.48 0.396,-0.459L0.396,-0.716L0.484,-0.716L0.484,-0L0.402,-0ZM0.125,-0.259C0.125,-0.192 0.139,-0.143 0.167,-0.11C0.194,-0.077 0.228,-0.061 0.266,-0.061C0.304,-0.061 0.337,-0.076 0.364,-0.108C0.39,-0.139 0.404,-0.187 0.404,-0.251C0.404,-0.322 0.39,-0.375 0.363,-0.408C0.335,-0.441 0.302,-0.458 0.262,-0.458C0.223,-0.458 0.19,-0.442 0.164,-0.41C0.138,-0.378 0.125,-0.327 0.125,-0.259Z" style="fill-rule:nonzero;"/>
        </g>
        <g transform="matrix(66.6667,0,0,66.6667,1386.99,293.486)">
            <path d="M0.147,-0L0.065,-0L0.065,-0.716L0.153,-0.716L0.153,-0.46C0.19,-0.507 0.238,-0.53 0.295,-0.53C0.327,-0.53 0.358,-0.524 0.386,-0.511C0.414,-0.498 0.438,-0.48 0.456,-0.457C0.475,-0.434 0.489,-0.405 0.5,-0.373C0.51,-0.34 0.515,-0.305 0.515,-0.267C0.515,-0.178 0.493,-0.11 0.449,-0.061C0.405,-0.013 0.353,0.012 0.291,0.012C0.23,0.012 0.182,-0.014 0.147,-0.065L0.147,-0ZM0.146,-0.263C0.146,-0.201 0.154,-0.156 0.171,-0.128C0.199,-0.083 0.236,-0.061 0.284,-0.061C0.322,-0.061 0.355,-0.077 0.383,-0.111C0.411,-0.144 0.425,-0.194 0.425,-0.26C0.425,-0.327 0.412,-0.377 0.385,-0.41C0.358,-0.442 0.326,-0.458 0.288,-0.458C0.249,-0.458 0.216,-0.441 0.188,-0.408C0.16,-0.375 0.146,-0.326 0.146,-0.263Z" style="fill-rule:nonzero;"/>
        </g>
        <g transform="matrix(66.6667,0,0,66.6667,1424.06,293.486)">
            <rect x="0.032" y="-0.303" width="0.27" height="0.088" style="fill-rule:nonzero;"/>
        </g>
        <g transform="matrix(66.6667,0,0,66.6667,1446.26,293.486)">
            <path d="M0.406,-0L0.406,-0.076C0.365,-0.018 0.311,0.012 0.241,0.012C0.211,0.012 0.182,0.006 0.156,-0.006C0.129,-0.018 0.109,-0.032 0.096,-0.05C0.084,-0.068 0.075,-0.09 0.069,-0.115C0.066,-0.132 0.064,-0.16 0.064,-0.197L0.064,-0.519L0.152,-0.519L0.152,-0.231C0.152,-0.185 0.154,-0.154 0.157,-0.138C0.163,-0.115 0.174,-0.097 0.192,-0.084C0.21,-0.071 0.232,-0.064 0.259,-0.064C0.285,-0.064 0.31,-0.071 0.333,-0.084C0.356,-0.098 0.372,-0.116 0.382,-0.139C0.392,-0.163 0.396,-0.196 0.396,-0.241L0.396,-0.519L0.484,-0.519L0.484,-0L0.406,-0Z" style="fill-rule:nonzero;"/>
        </g>
        <g transform="matrix(66.6667,0,0,66.6667,1483.34,293.486)">
            <path d="M0.031,-0.155L0.118,-0.168C0.123,-0.134 0.136,-0.107 0.158,-0.088C0.181,-0.07 0.212,-0.061 0.252,-0.061C0.292,-0.061 0.322,-0.069 0.342,-0.085C0.361,-0.102 0.371,-0.121 0.371,-0.143C0.371,-0.163 0.362,-0.179 0.345,-0.19C0.333,-0.198 0.303,-0.208 0.255,-0.22C0.191,-0.236 0.146,-0.25 0.121,-0.262C0.096,-0.274 0.078,-0.29 0.065,-0.311C0.052,-0.332 0.045,-0.355 0.045,-0.381C0.045,-0.404 0.051,-0.425 0.061,-0.445C0.072,-0.465 0.086,-0.481 0.104,-0.494C0.118,-0.504 0.137,-0.513 0.16,-0.52C0.184,-0.527 0.209,-0.53 0.236,-0.53C0.277,-0.53 0.313,-0.524 0.344,-0.513C0.374,-0.501 0.397,-0.485 0.412,-0.465C0.426,-0.445 0.436,-0.418 0.442,-0.385L0.356,-0.373C0.352,-0.4 0.341,-0.421 0.322,-0.436C0.303,-0.451 0.277,-0.458 0.243,-0.458C0.202,-0.458 0.174,-0.451 0.156,-0.438C0.139,-0.425 0.13,-0.409 0.13,-0.391C0.13,-0.38 0.134,-0.369 0.141,-0.36C0.148,-0.351 0.16,-0.343 0.175,-0.337C0.184,-0.334 0.209,-0.326 0.252,-0.314C0.315,-0.298 0.358,-0.284 0.383,-0.274C0.407,-0.263 0.426,-0.248 0.44,-0.228C0.454,-0.207 0.461,-0.182 0.461,-0.152C0.461,-0.123 0.453,-0.095 0.436,-0.07C0.419,-0.044 0.394,-0.024 0.362,-0.01C0.33,0.005 0.293,0.012 0.252,0.012C0.185,0.012 0.134,-0.002 0.098,-0.03C0.063,-0.058 0.041,-0.1 0.031,-0.155Z" style="fill-rule:nonzero;"/>
        </g>
    </g>
    <g transform="matrix(1,0,0,1,120.525,691.208)">
        <g transform="matrix(66.6667,0,0,66.6667,1349.91,293.486)">
            <path d="M0.402,-0L0.402,-0.065C0.369,-0.014 0.321,0.012 0.257,0.012C0.216,0.012 0.178,0 0.143,-0.022C0.109,-0.045 0.082,-0.077 0.063,-0.118C0.044,-0.159 0.034,-0.206 0.034,-0.259C0.034,-0.311 0.043,-0.358 0.06,-0.4C0.077,-0.442 0.103,-0.474 0.138,-0.497C0.172,-0.519 0.211,-0.53 0.253,-0.53C0.285,-0.53 0.313,-0.524 0.337,-0.51C0.361,-0.497 0.381,-0.48 0.396,-0.459L0.396,-0.716L0.484,-0.716L0.484,-0L0.402,-0ZM0.125,-0.259C0.125,-0.192 0.139,-0.143 0.167,-0.11C0.194,-0.077 0.228,-0.061 0.266,-0.061C0.304,-0.061 0.337,-0.076 0.364,-0.108C0.39,-0.139 0.404,-0.187 0.404,-0.251C0.404,-0.322 0.39,-0.375 0.363,-0.408C0.335,-0.441 0.302,-0.458 0.262,-0.458C0.223,-0.458 0.19,-0.442 0.164,-0.41C0.138,-0.378 0.125,-0.327 0.125,-0.259Z" style="fill-rule:nonzero;"/>
        </g>
        <g transform="matrix(66.6667,0,0,66.6667,1386.99,293.486)">
            <path d="M0.147,-0L0.065,-0L0.065,-0.716L0.153,-0.716L0.153,-0.46C0.19,-0.507 0.238,-0.53 0.295,-0.53C0.327,-0.53 0.358,-0.524 0.386,-0.511C0.414,-0.498 0.438,-0.48 0.456,-0.457C0.475,-0.434 0.489,-0.405 0.5,-0.373C0.51,-0.34 0.515,-0.305 0.515,-0.267C0.515,-0.178 0.493,-0.11 0.449,-0.061C0.405,-0.013 0.353,0.012 0.291,0.012C0.23,0.012 0.182,-0.014 0.147,-0.065L0.147,-0ZM0.146,-0.263C0.146,-0.201 0.154,-0.156 0.171,-0.128C0.199,-0.083 0.236,-0.061 0.284,-0.061C0.322,-0.061 0.355,-0.077 0.383,-0.111C0.411,-0.144 0.425,-0.194 0.425,-0.26C0.425,-0.327 0.412,-0.377 0.385,-0.41C0.358,-0.442 0.326,-0.458 0.288,-0.458C0.249,-0.458 0.216,-0.441 0.188,-0.408C0.16,-0.375 0.146,-0.326 0.146,-0.263Z" style="fill-rule:nonzero;"/>
        </g>
        <g transform="matrix(66.6667,0,0,66.6667,1424.06,293.486)">
            <rect x="0.032" y="-0.303" width="0.27" height="0.088" style="fill-rule:nonzero;"/>
        </g>
        <g transform="matrix(66.6667,0,0,66.6667,1446.26,293.486)">
            <path d="M0.404,-0.064C0.372,-0.036 0.34,-0.017 0.31,-0.005C0.28,0.006 0.248,0.012 0.213,0.012C0.156,0.012 0.113,-0.002 0.082,-0.03C0.051,-0.058 0.036,-0.093 0.036,-0.137C0.036,-0.162 0.042,-0.185 0.053,-0.206C0.065,-0.227 0.08,-0.244 0.099,-0.257C0.118,-0.27 0.139,-0.279 0.162,-0.286C0.179,-0.29 0.205,-0.295 0.24,-0.299C0.311,-0.307 0.363,-0.317 0.397,-0.329C0.397,-0.341 0.397,-0.349 0.397,-0.352C0.397,-0.388 0.389,-0.413 0.373,-0.428C0.35,-0.448 0.317,-0.458 0.272,-0.458C0.231,-0.458 0.201,-0.45 0.181,-0.436C0.161,-0.421 0.147,-0.396 0.137,-0.359L0.051,-0.371C0.059,-0.407 0.072,-0.437 0.09,-0.46C0.108,-0.482 0.134,-0.5 0.167,-0.512C0.201,-0.524 0.241,-0.53 0.285,-0.53C0.329,-0.53 0.365,-0.525 0.393,-0.515C0.421,-0.504 0.441,-0.491 0.454,-0.475C0.467,-0.46 0.476,-0.44 0.481,-0.416C0.484,-0.401 0.486,-0.374 0.486,-0.334L0.486,-0.217C0.486,-0.136 0.488,-0.084 0.491,-0.062C0.495,-0.041 0.503,-0.02 0.514,-0L0.422,-0C0.413,-0.018 0.407,-0.04 0.404,-0.064ZM0.397,-0.26C0.365,-0.247 0.317,-0.236 0.253,-0.227C0.217,-0.222 0.192,-0.216 0.177,-0.209C0.162,-0.203 0.15,-0.193 0.142,-0.181C0.134,-0.168 0.13,-0.154 0.13,-0.139C0.13,-0.116 0.139,-0.096 0.156,-0.081C0.174,-0.065 0.2,-0.057 0.234,-0.057C0.268,-0.057 0.298,-0.065 0.325,-0.079C0.351,-0.094 0.37,-0.114 0.383,-0.14C0.392,-0.16 0.397,-0.189 0.397,-0.228L0.397,-0.26Z" style="fill-rule:nonzero;"/>
        </g>
        <g transform="matrix(66.6667,0,0,66.6667,1483.34,293.486)">
            <path d="M0.087,-0L0.087,-0.45L0.009,-0.45L0.009,-0.519L0.087,-0.519L0.087,-0.574C0.087,-0.609 0.09,-0.634 0.096,-0.651C0.105,-0.674 0.12,-0.693 0.141,-0.707C0.162,-0.721 0.192,-0.728 0.23,-0.728C0.255,-0.728 0.283,-0.725 0.313,-0.719L0.299,-0.643C0.281,-0.646 0.264,-0.647 0.248,-0.647C0.221,-0.647 0.202,-0.642 0.191,-0.63C0.18,-0.619 0.174,-0.598 0.174,-0.566L0.174,-0.519L0.275,-0.519L0.275,-0.45L0.174,-0.45L0.174,-0L0.087,-0Z" style="fill-rule:nonzero;"/>
        </g>
    </g>
    <g transform="matrix(1,0,0,1,-1279.48,942.837)">
        <g transform="matrix(66.6667,0,0,66.6667,1349.91,293.486)">
            <path d="M0.402,-0L0.402,-0.065C0.369,-0.014 0.321,0.012 0.257,0.012C0.216,0.012 0.178,0 0.143,-0.022C0.109,-0.045 0.082,-0.077 0.063,-0.118C0.044,-0.159 0.034,-0.206 0.034,-0.259C0.034,-0.311 0.043,-0.358 0.06,-0.4C0.077,-0.442 0.103,-0.474 0.138,-0.497C0.172,-0.519 0.211,-0.53 0.253,-0.53C0.285,-0.53 0.313,-0.524 0.337,-0.51C0.361,-0.497 0.381,-0.48 0.396,-0.459L0.396,-0.716L0.484,-0.716L0.484,-0L0.402,-0ZM0.125,-0.259C0.125,-0.192 0.139,-0.143 0.167,-0.11C0.194,-0.077 0.228,-0.061 0.266,-0.061C0.304,-0.061 0.337,-0.076 0.364,-0.108C0.39,-0.139 0.404,-0.187 0.404,-0.251C0.404,-0.322 0.39,-0.375 0.363,-0.408C0.335,-0.441 0.302,-0.458 0.262,-0.458C0.223,-0.458 0.19,-0.442 0.164,-0.41C0.138,-0.378 0.125,-0.327 0.125,-0.259Z" style="fill-rule:nonzero;"/>
        </g>
        <g transform="matrix(66.6667,0,0,66.6667,1386.99,293.486)">
            <path d="M0.147,-0L0.065,-0L0.065,-0.716L0.153,-0.716L0.153,-0.46C0.19,-0.507 0.238,-0.53 0.295,-0.53C0.327,-0.53 0.358,-0.524 0.386,-0.511C0.414,-0.498 0.438,-0.48 0.456,-0.457C0.475,-0.434 0.489,-0.405 0.5,-0.373C0.51,-0.34 0.515,-0.305 0.515,-0.267C0.515,-0.178 0.493,-0.11 0.449,-0.061C0.405,-0.013 0.353,0.012 0.291,0.012C0.23,0.012 0.182,-0.014 0.147,-0.065L0.147,-0ZM0.146,-0.263C0.146,-0.201 0.154,-0.156 0.171,-0.128C0.199,-0.083 0.236,-0.061 0.284,-0.061C0.322,-0.061 0.355,-0.077 0.383,-0.111C0.411,-0.144 0.425,-0.194 0.425,-0.26C0.425,-0.327 0.412,-0.377 0.385,-0.41C0.358,-0.442 0.326,-0.458 0.288,-0.458C0.249,-0.458 0.216,-0.441 0.188,-0.408C0.16,-0.375 0.146,-0.326 0.146,-0.263Z" style="fill-rule:nonzero;"/>
        </g>
        <g transform="matrix(66.6667,0,0,66.6667,1424.06,293.486)">
            <rect x="0.032" y="-0.303" width="0.27" height="0.088" style="fill-rule:nonzero;"/>
        </g>
        <g transform="matrix(66.6667,0,0,66.6667,1446.26,293.486)">
            <rect x="0.064" y="-0.716" width="0.088" height="0.716" style="fill-rule:nonzero;"/>
        </g>
        <g transform="matrix(66.6667,0,0,66.6667,1461.07,293.486)">
            <path d="M0.404,-0.064C0.372,-0.036 0.34,-0.017 0.31,-0.005C0.28,0.006 0.248,0.012 0.213,0.012C0.156,0.012 0.113,-0.002 0.082,-0.03C0.051,-0.058 0.036,-0.093 0.036,-0.137C0.036,-0.162 0.042,-0.185 0.053,-0.206C0.065,-0.227 0.08,-0.244 0.099,-0.257C0.118,-0.27 0.139,-0.279 0.162,-0.286C0.179,-0.29 0.205,-0.295 0.24,-0.299C0.311,-0.307 0.363,-0.317 0.397,-0.329C0.397,-0.341 0.397,-0.349 0.397,-0.352C0.397,-0.388 0.389,-0.413 0.373,-0.428C0.35,-0.448 0.317,-0.458 0.272,-0.458C0.231,-0.458 0.201,-0.45 0.181,-0.436C0.161,-0.421 0.147,-0.396 0.137,-0.359L0.051,-0.371C0.059,-0.407 0.072,-0.437 0.09,-0.46C0.108,-0.482 0.134,-0.5 0.167,-0.512C0.201,-0.524 0.241,-0.53 0.285,-0.53C0.329,-0.53 0.365,-0.525 0.393,-0.515C0.421,-0.504 0.441,-0.491 0.454,-0.475C0.467,-0.46 0.476,-0.44 0.481,-0.416C0.484,-0.401 0.486,-0.374 0.486,-0.334L0.486,-0.217C0.486,-0.136 0.488,-0.084 0.491,-0.062C0.495,-0.041 0.503,-0.02 0.514,-0L0.422,-0C0.413,-0.018 0.407,-0.04 0.404,-0.064ZM0.397,-0.26C0.365,-0.247 0.317,-0.236 0.253,-0.227C0.217,-0.222 0.192,-0.216 0.177,-0.209C0.162,-0.203 0.15,-0.193 0.142,-0.181C0.134,-0.168 0.13,-0.154 0.13,-0.139C0.13,-0.116 0.139,-0.096 0.156,-0.081C0.174,-0.065 0.2,-0.057 0.234,-0.057C0.268,-0.057 0.298,-0.065 0.325,-0.079C0.351,-0.094 0.37,-0.114 0.383,-0.14C0.392,-0.16 0.397,-0.189 0.397,-0.228L0.397,-0.26Z" style="fill-rule:nonzero;"/>
        </g>
    </g>
    <g transform="matrix(1,0,0,1,-992.631,369.664)">
        <g transform="matrix(66.6667,0,0,66.6667,1349.91,293.486)">
            <path d="M0.402,-0L0.402,-0.065C0.369,-0.014 0.321,0.012 0.257,0.012C0.216,0.012 0.178,0 0.143,-0.022C0.109,-0.045 0.082,-0.077 0.063,-0.118C0.044,-0.159 0.034,-0.206 0.034,-0.259C0.034,-0.311 0.043,-0.358 0.06,-0.4C0.077,-0.442 0.103,-0.474 0.138,-0.497C0.172,-0.519 0.211,-0.53 0.253,-0.53C0.285,-0.53 0.313,-0.524 0.337,-0.51C0.361,-0.497 0.381,-0.48 0.396,-0.459L0.396,-0.716L0.484,-0.716L0.484,-0L0.402,-0ZM0.125,-0.259C0.125,-0.192 0.139,-0.143 0.167,-0.11C0.194,-0.077 0.228,-0.061 0.266,-0.061C0.304,-0.061 0.337,-0.076 0.364,-0.108C0.39,-0.139 0.404,-0.187 0.404,-0.251C0.404,-0.322 0.39,-0.375 0.363,-0.408C0.335,-0.441 0.302,-0.458 0.262,-0.458C0.223,-0.458 0.19,-0.442 0.164,-0.41C0.138,-0.378 0.125,-0.327 0.125,-0.259Z" style="fill-rule:nonzero;"/>
        </g>
        <g transform="matrix(66.6667,0,0,66.6667,1386.99,293.486)">
            <path d="M0.147,-0L0.065,-0L0.065,-0.716L0.153,-0.716L0.153,-0.46C0.19,-0.507 0.238,-0.53 0.295,-0.53C0.327,-0.53 0.358,-0.524 0.386,-0.511C0.414,-0.498 0.438,-0.48 0.456,-0.457C0.475,-0.434 0.489,-0.405 0.5,-0.373C0.51,-0.34 0.515,-0.305 0.515,-0.267C0.515,-0.178 0.493,-0.11 0.449,-0.061C0.405,-0.013 0.353,0.012 0.291,0.012C0.23,0.012 0.182,-0.014 0.147,-0.065L0.147,-0ZM0.146,-0.263C0.146,-0.201 0.154,-0.156 0.171,-0.128C0.199,-0.083 0.236,-0.061 0.284,-0.061C0.322,-0.061 0.355,-0.077 0.383,-0.111C0.411,-0.144 0.425,-0.194 0.425,-0.26C0.425,-0.327 0.412,-0.377 0.385,-0.41C0.358,-0.442 0.326,-0.458 0.288,-0.458C0.249,-0.458 0.216,-0.441 0.188,-0.408C0.16,-0.375 0.146,-0.326 0.146,-0.263Z" style="fill-rule:nonzero;"/>
        </g>
        <g transform="matrix(66.6667,0,0,66.6667,1424.06,293.486)">
            <rect x="0.032" y="-0.303" width="0.27" height="0.088" style="fill-rule:nonzero;"/>
        </g>
        <g transform="matrix(66.6667,0,0,66.6667,1446.26,293.486)">
            <path d="M0.033,-0.259C0.033,-0.355 0.06,-0.426 0.113,-0.473C0.158,-0.511 0.212,-0.53 0.276,-0.53C0.348,-0.53 0.406,-0.507 0.451,-0.46C0.496,-0.413 0.519,-0.349 0.519,-0.267C0.519,-0.2 0.509,-0.147 0.489,-0.109C0.469,-0.071 0.44,-0.041 0.402,-0.02C0.363,0.001 0.322,0.012 0.276,0.012C0.204,0.012 0.145,-0.012 0.1,-0.058C0.056,-0.105 0.033,-0.172 0.033,-0.259ZM0.124,-0.259C0.124,-0.193 0.138,-0.143 0.167,-0.11C0.196,-0.077 0.232,-0.061 0.276,-0.061C0.32,-0.061 0.356,-0.077 0.385,-0.11C0.414,-0.144 0.429,-0.194 0.429,-0.262C0.429,-0.326 0.414,-0.375 0.385,-0.408C0.356,-0.441 0.32,-0.458 0.276,-0.458C0.232,-0.458 0.196,-0.441 0.167,-0.408C0.138,-0.375 0.124,-0.326 0.124,-0.259Z" style="fill-rule:nonzero;"/>
        </g>
        <g transform="matrix(66.6667,0,0,66.6667,1483.34,293.486)">
            <path d="M0.404,-0.19L0.491,-0.179C0.481,-0.119 0.457,-0.073 0.418,-0.039C0.379,-0.005 0.332,0.012 0.275,0.012C0.204,0.012 0.147,-0.011 0.104,-0.058C0.061,-0.104 0.039,-0.171 0.039,-0.257C0.039,-0.313 0.048,-0.362 0.067,-0.404C0.085,-0.446 0.114,-0.478 0.152,-0.499C0.19,-0.52 0.231,-0.53 0.275,-0.53C0.332,-0.53 0.378,-0.516 0.414,-0.488C0.449,-0.459 0.472,-0.419 0.482,-0.366L0.397,-0.353C0.389,-0.388 0.374,-0.414 0.354,-0.432C0.333,-0.449 0.308,-0.458 0.279,-0.458C0.235,-0.458 0.199,-0.442 0.171,-0.41C0.143,-0.379 0.129,-0.328 0.129,-0.26C0.129,-0.19 0.143,-0.139 0.169,-0.108C0.196,-0.076 0.231,-0.061 0.274,-0.061C0.308,-0.061 0.337,-0.071 0.36,-0.092C0.383,-0.113 0.398,-0.146 0.404,-0.19Z" style="fill-rule:nonzero;"/>
        </g>
    </g>
    <g transform="matrix(1,0,0,1,-1279.48,-203.913)">
        <g transform="matrix(66.6667,0,0,66.6667,1349.91,293.486)">
            <path d="M0.402,-0L0.402,-0.065C0.369,-0.014 0.321,0.012 0.257,0.012C0.216,0.012 0.178,0 0.143,-0.022C0.109,-0.045 0.082,-0.077 0.063,-0.118C0.044,-0.159 0.034,-0.206 0.034,-0.259C0.034,-0.311 0.043,-0.358 0.06,-0.4C0.077,-0.442 0.103,-0.474 0.138,-0.497C0.172,-0.519 0.211,-0.53 0.253,-0.53C0.285,-0.53 0.313,-0.524 0.337,-0.51C0.361,-0.497 0.381,-0.48 0.396,-0.459L0.396,-0.716L0.484,-0.716L0.484,-0L0.402,-0ZM0.125,-0.259C0.125,-0.192 0.139,-0.143 0.167,-0.11C0.194,-0.077 0.228,-0.061 0.266,-0.061C0.304,-0.061 0.337,-0.076 0.364,-0.108C0.39,-0.139 0.404,-0.187 0.404,-0.251C0.404,-0.322 0.39,-0.375 0.363,-0.408C0.335,-0.441 0.302,-0.458 0.262,-0.458C0.223,-0.458 0.19,-0.442 0.164,-0.41C0.138,-0.378 0.125,-0.327 0.125,-0.259Z" style="fill-rule:nonzero;"/>
        </g>
        <g transform="matrix(66.6667,0,0,66.6667,1386.99,293.486)">
            <path d="M0.147,-0L0.065,-0L0.065,-0.716L0.153,-0.716L0.153,-0.46C0.19,-0.507 0.238,-0.53 0.295,-0.53C0.327,-0.53 0.358,-0.524 0.386,-0.511C0.414,-0.498 0.438,-0.48 0.456,-0.457C0.475,-0.434 0.489,-0.405 0.5,-0.373C0.51,-0.34 0.515,-0.305 0.515,-0.267C0.515,-0.178 0.493,-0.11 0.449,-0.061C0.405,-0.013 0.353,0.012 0.291,0.012C0.23,0.012 0.182,-0.014 0.147,-0.065L0.147,-0ZM0.146,-0.263C0.146,-0.201 0.154,-0.156 0.171,-0.128C0.199,-0.083 0.236,-0.061 0.284,-0.061C0.322,-0.061 0.355,-0.077 0.383,-0.111C0.411,-0.144 0.425,-0.194 0.425,-0.26C0.425,-0.327 0.412,-0.377 0.385,-0.41C0.358,-0.442 0.326,-0.458 0.288,-0.458C0.249,-0.458 0.216,-0.441 0.188,-0.408C0.16,-0.375 0.146,-0.326 0.146,-0.263Z" style="fill-rule:nonzero;"/>
        </g>
        <g transform="matrix(66.6667,0,0,66.6667,1424.06,293.486)">
            <rect x="0.032" y="-0.303" width="0.27" height="0.088" style="fill-rule:nonzero;"/>
        </g>
        <g transform="matrix(66.6667,0,0,66.6667,1446.26,293.486)">
            <path d="M0.421,-0.167L0.512,-0.156C0.497,-0.103 0.471,-0.062 0.432,-0.032C0.393,-0.003 0.344,0.012 0.284,0.012C0.208,0.012 0.148,-0.012 0.103,-0.058C0.059,-0.105 0.037,-0.171 0.037,-0.255C0.037,-0.342 0.059,-0.41 0.104,-0.458C0.149,-0.506 0.207,-0.53 0.279,-0.53C0.348,-0.53 0.405,-0.507 0.449,-0.459C0.493,-0.412 0.515,-0.346 0.515,-0.26C0.515,-0.255 0.514,-0.247 0.514,-0.237L0.127,-0.237C0.131,-0.18 0.147,-0.136 0.176,-0.106C0.205,-0.076 0.241,-0.061 0.284,-0.061C0.316,-0.061 0.344,-0.069 0.367,-0.086C0.389,-0.103 0.408,-0.13 0.421,-0.167ZM0.132,-0.309L0.422,-0.309C0.418,-0.353 0.407,-0.385 0.389,-0.407C0.361,-0.441 0.324,-0.458 0.28,-0.458C0.239,-0.458 0.205,-0.444 0.178,-0.417C0.15,-0.39 0.135,-0.354 0.132,-0.309Z" style="fill-rule:nonzero;"/>
        </g>
        <g transform="matrix(66.6667,0,0,66.6667,1483.34,293.486)">
            <path d="M0.406,-0L0.406,-0.076C0.365,-0.018 0.311,0.012 0.241,0.012C0.211,0.012 0.182,0.006 0.156,-0.006C0.129,-0.018 0.109,-0.032 0.096,-0.05C0.084,-0.068 0.075,-0.09 0.069,-0.115C0.066,-0.132 0.064,-0.16 0.064,-0.197L0.064,-0.519L0.152,-0.519L0.152,-0.231C0.152,-0.185 0.154,-0.154 0.157,-0.138C0.163,-0.115 0.174,-0.097 0.192,-0.084C0.21,-0.071 0.232,-0.064 0.259,-0.064C0.285,-0.064 0.31,-0.071 0.333,-0.084C0.356,-0.098 0.372,-0.116 0.382,-0.139C0.392,-0.163 0.396,-0.196 0.396,-0.241L0.396,-0.519L0.484,-0.519L0.484,-0L0.406,-0Z" style="fill-rule:nonzero;"/>
        </g>
    </g>
</svg>
