<?xml version="1.0" encoding="UTF-8" standalone="no"?>
<!DOCTYPE svg PUBLIC "-//W3C//DTD SVG 1.1//EN" "http://www.w3.org/Graphics/SVG/1.1/DTD/svg11.dtd">
<svg width="100%" height="100%" viewBox="0 0 2481 1749" version="1.1" xmlns="http://www.w3.org/2000/svg" xmlns:xlink="http://www.w3.org/1999/xlink" xml:space="preserve" xmlns:serif="http://www.serif.com/" style="fill-rule:evenodd;clip-rule:evenodd;stroke-linejoin:round;stroke-miterlimit:2;">
    <g transform="matrix(1,0,0,1,6.69188,-1.53228)">
        <g transform="matrix(0.436534,0.00156162,-0.00156162,0.436534,-126.206,476.911)">
            <g transform="matrix(-0.813981,0,0,1.08851,2289.37,-227.432)">
                <rect x="267.045" y="437.158" width="2037.1" height="1213.26" style="fill:rgb(188,188,188);"/>
            </g>
            <g transform="matrix(-0.762861,0,0,0.31201,2222.05,1006.69)">
                <rect x="267.045" y="437.158" width="2037.1" height="1213.26"/>
            </g>
            <g transform="matrix(-0.762861,0,0,0.112498,2222.05,1335.97)">
                <rect x="267.045" y="437.158" width="2037.1" height="1213.26" style="fill:rgb(45,159,25);"/>
            </g>
            <g transform="matrix(-0.762861,0,0,0.657324,2222.05,9.64546)">
                <rect x="267.045" y="437.158" width="2037.1" height="1213.26"/>
            </g>
            <g transform="matrix(-0.762861,0,0,0.112498,2222.05,908.837)">
                <rect x="267.045" y="437.158" width="2037.1" height="1213.26" style="fill:rgb(45,159,25);"/>
            </g>
        </g>
        <g transform="matrix(0.436534,0.00156162,-0.00156162,0.436534,692.307,476.911)">
            <g transform="matrix(-0.813981,0,0,1.08851,2289.37,-227.432)">
                <rect x="267.045" y="437.158" width="2037.1" height="1213.26" style="fill:rgb(188,188,188);"/>
            </g>
            <g transform="matrix(-0.762861,0,0,0.31201,2222.05,1006.69)">
                <rect x="267.045" y="437.158" width="2037.1" height="1213.26"/>
            </g>
            <g transform="matrix(-0.762861,0,0,0.112498,2222.05,1335.97)">
                <rect x="267.045" y="437.158" width="2037.1" height="1213.26" style="fill:rgb(45,159,25);"/>
            </g>
            <g transform="matrix(-0.762861,0,0,0.657324,2222.05,9.64546)">
                <rect x="267.045" y="437.158" width="2037.1" height="1213.26"/>
            </g>
            <g transform="matrix(-0.762861,0,0,0.112498,2222.05,908.837)">
                <rect x="267.045" y="437.158" width="2037.1" height="1213.26" style="fill:rgb(45,159,25);"/>
            </g>
        </g>
        <g transform="matrix(0.436534,0.00156162,-0.00156162,0.436534,1510.82,476.911)">
            <g transform="matrix(-0.813981,0,0,1.08851,2289.37,-227.432)">
                <rect x="267.045" y="437.158" width="2037.1" height="1213.26" style="fill:rgb(188,188,188);"/>
            </g>
            <g transform="matrix(-0.762861,0,0,0.31201,2222.05,1006.69)">
                <rect x="267.045" y="437.158" width="2037.1" height="1213.26"/>
            </g>
            <g transform="matrix(-0.762861,0,0,0.112498,2222.05,1335.97)">
                <rect x="267.045" y="437.158" width="2037.1" height="1213.26" style="fill:rgb(45,159,25);"/>
            </g>
            <g transform="matrix(-0.762861,0,0,0.657324,2222.05,9.64546)">
                <rect x="267.045" y="437.158" width="2037.1" height="1213.26"/>
            </g>
            <g transform="matrix(-0.762861,0,0,0.112498,2222.05,908.837)">
                <rect x="267.045" y="437.158" width="2037.1" height="1213.26" style="fill:rgb(45,159,25);"/>
            </g>
        </g>
    </g>
</svg>
