<?xml version="1.0" encoding="UTF-8" standalone="no"?>
<!DOCTYPE svg PUBLIC "-//W3C//DTD SVG 1.1//EN" "http://www.w3.org/Graphics/SVG/1.1/DTD/svg11.dtd">
<svg width="100%" height="100%" viewBox="0 0 3600 1749" version="1.1" xmlns="http://www.w3.org/2000/svg" xmlns:xlink="http://www.w3.org/1999/xlink" xml:space="preserve" xmlns:serif="http://www.serif.com/" style="fill-rule:evenodd;clip-rule:evenodd;stroke-linejoin:round;stroke-miterlimit:2;">
    <g transform="matrix(1,0,0,1,25.3134,0)">
        <g transform="matrix(-0.468625,0,0,0.634937,1323.78,-185.586)">
            <rect x="267.045" y="437.158" width="2037.1" height="1213.26" style="fill:rgb(215,215,215);"/>
        </g>
        <g transform="matrix(-0.135159,0,0,0.0802879,1204.2,83.6659)">
            <rect x="267.045" y="437.158" width="2037.1" height="1213.26" style="fill:rgb(166,166,166);"/>
        </g>
        <g transform="matrix(-0.135159,0,0,0.0802879,898.331,83.8653)">
            <rect x="267.045" y="437.158" width="2037.1" height="1213.26" style="fill:rgb(166,166,166);"/>
        </g>
        <g transform="matrix(-0.135159,0,0,0.0802879,592.467,83.6659)">
            <rect x="267.045" y="437.158" width="2037.1" height="1213.26" style="fill:rgb(102,102,102);"/>
        </g>
        <g transform="matrix(-0.135159,0,0,0.0802879,1204.2,207.26)">
            <rect x="267.045" y="437.158" width="2037.1" height="1213.26" style="fill:rgb(166,166,166);"/>
        </g>
        <g transform="matrix(-0.135159,0,0,0.0802879,898.331,207.46)">
            <rect x="267.045" y="437.158" width="2037.1" height="1213.26" style="fill:rgb(166,166,166);"/>
        </g>
        <g transform="matrix(-0.135159,0,0,0.0802879,592.467,207.26)">
            <rect x="267.045" y="437.158" width="2037.1" height="1213.26" style="fill:rgb(102,102,102);"/>
        </g>
        <g transform="matrix(-0.135159,0,0,0.0802879,1204.2,331.054)">
            <rect x="267.045" y="437.158" width="2037.1" height="1213.26" style="fill:rgb(166,166,166);"/>
        </g>
        <g transform="matrix(-0.135159,0,0,0.0802879,898.331,331.254)">
            <rect x="267.045" y="437.158" width="2037.1" height="1213.26" style="fill:rgb(166,166,166);"/>
        </g>
        <g transform="matrix(-0.135159,0,0,0.0802879,592.467,331.054)">
            <rect x="267.045" y="437.158" width="2037.1" height="1213.26" style="fill:rgb(102,102,102);"/>
        </g>
        <g transform="matrix(-0.135159,0,0,0.0802879,1204.2,454.649)">
            <rect x="267.045" y="437.158" width="2037.1" height="1213.26" style="fill:rgb(166,166,166);"/>
        </g>
        <g transform="matrix(-0.135159,0,0,0.0802879,898.331,454.848)">
            <rect x="267.045" y="437.158" width="2037.1" height="1213.26" style="fill:rgb(166,166,166);"/>
        </g>
        <g transform="matrix(-0.135159,0,0,0.0802879,592.467,454.649)">
            <rect x="267.045" y="437.158" width="2037.1" height="1213.26" style="fill:rgb(102,102,102);"/>
        </g>
        <g transform="matrix(-0.135159,0,0,0.0802879,1204.2,578.642)">
            <rect x="267.045" y="437.158" width="2037.1" height="1213.26" style="fill:rgb(166,166,166);"/>
        </g>
        <g transform="matrix(-0.135159,0,0,0.0802879,898.331,578.841)">
            <rect x="267.045" y="437.158" width="2037.1" height="1213.26" style="fill:rgb(166,166,166);"/>
        </g>
        <g transform="matrix(-0.135159,0,0,0.0802879,592.467,578.642)">
            <rect x="267.045" y="437.158" width="2037.1" height="1213.26" style="fill:rgb(102,102,102);"/>
        </g>
        <g transform="matrix(-0.135159,0,0,0.0802879,1204.2,702.835)">
            <rect x="267.045" y="437.158" width="2037.1" height="1213.26" style="fill:rgb(166,166,166);"/>
        </g>
        <g transform="matrix(-0.135159,0,0,0.0802879,898.331,703.034)">
            <rect x="267.045" y="437.158" width="2037.1" height="1213.26" style="fill:rgb(166,166,166);"/>
        </g>
        <g transform="matrix(-0.135159,0,0,0.0802879,592.467,702.835)">
            <rect x="267.045" y="437.158" width="2037.1" height="1213.26" style="fill:rgb(102,102,102);"/>
        </g>
        <g transform="matrix(-0.468625,0,0,0.634937,1323.78,639.12)">
            <rect x="267.045" y="437.158" width="2037.1" height="1213.26" style="fill:rgb(215,215,215);"/>
        </g>
        <g transform="matrix(-0.135159,0,0,0.0802879,1204.2,908.372)">
            <rect x="267.045" y="437.158" width="2037.1" height="1213.26" style="fill:rgb(166,166,166);"/>
        </g>
        <g transform="matrix(-0.135159,0,0,0.0802879,898.331,908.571)">
            <rect x="267.045" y="437.158" width="2037.1" height="1213.26" style="fill:rgb(166,166,166);"/>
        </g>
        <g transform="matrix(-0.135159,0,0,0.0802879,592.467,908.372)">
            <rect x="267.045" y="437.158" width="2037.1" height="1213.26" style="fill:rgb(102,102,102);"/>
        </g>
        <g transform="matrix(-0.135159,0,0,0.0802879,1204.2,1031.97)">
            <rect x="267.045" y="437.158" width="2037.1" height="1213.26" style="fill:rgb(166,166,166);"/>
        </g>
        <g transform="matrix(-0.135159,0,0,0.0802879,898.331,1032.17)">
            <rect x="267.045" y="437.158" width="2037.1" height="1213.26" style="fill:rgb(166,166,166);"/>
        </g>
        <g transform="matrix(-0.135159,0,0,0.0802879,592.467,1031.97)">
            <rect x="267.045" y="437.158" width="2037.1" height="1213.26" style="fill:rgb(102,102,102);"/>
        </g>
        <g transform="matrix(-0.135159,0,0,0.0802879,1204.2,1155.76)">
            <rect x="267.045" y="437.158" width="2037.1" height="1213.26" style="fill:rgb(166,166,166);"/>
        </g>
        <g transform="matrix(-0.135159,0,0,0.0802879,898.331,1155.96)">
            <rect x="267.045" y="437.158" width="2037.1" height="1213.26" style="fill:rgb(166,166,166);"/>
        </g>
        <g transform="matrix(-0.135159,0,0,0.0802879,592.467,1155.76)">
            <rect x="267.045" y="437.158" width="2037.1" height="1213.26" style="fill:rgb(102,102,102);"/>
        </g>
        <g transform="matrix(-0.135159,0,0,0.0802879,1204.2,1279.35)">
            <rect x="267.045" y="437.158" width="2037.1" height="1213.26" style="fill:rgb(166,166,166);"/>
        </g>
        <g transform="matrix(-0.135159,0,0,0.0802879,898.331,1279.55)">
            <rect x="267.045" y="437.158" width="2037.1" height="1213.26" style="fill:rgb(166,166,166);"/>
        </g>
        <g transform="matrix(-0.135159,0,0,0.0802879,592.467,1279.35)">
            <rect x="267.045" y="437.158" width="2037.1" height="1213.26" style="fill:rgb(102,102,102);"/>
        </g>
        <g transform="matrix(-0.135159,0,0,0.0802879,1204.2,1403.35)">
            <rect x="267.045" y="437.158" width="2037.1" height="1213.26" style="fill:rgb(166,166,166);"/>
        </g>
        <g transform="matrix(-0.135159,0,0,0.0802879,898.331,1403.55)">
            <rect x="267.045" y="437.158" width="2037.1" height="1213.26" style="fill:rgb(166,166,166);"/>
        </g>
        <g transform="matrix(-0.135159,0,0,0.0802879,592.467,1403.35)">
            <rect x="267.045" y="437.158" width="2037.1" height="1213.26" style="fill:rgb(102,102,102);"/>
        </g>
        <g transform="matrix(-0.135159,0,0,0.0802879,1204.2,1527.54)">
            <rect x="267.045" y="437.158" width="2037.1" height="1213.26" style="fill:rgb(166,166,166);"/>
        </g>
        <g transform="matrix(-0.135159,0,0,0.0802879,898.331,1527.74)">
            <rect x="267.045" y="437.158" width="2037.1" height="1213.26" style="fill:rgb(166,166,166);"/>
        </g>
        <g transform="matrix(-0.135159,0,0,0.0802879,592.467,1527.54)">
            <rect x="267.045" y="437.158" width="2037.1" height="1213.26" style="fill:rgb(102,102,102);"/>
        </g>
        <g transform="matrix(-0.468625,0,0,0.226472,3144.31,817.684)">
            <rect x="267.045" y="437.158" width="2037.1" height="1213.26" style="fill:rgb(235,235,235);"/>
        </g>
        <g transform="matrix(-0.468625,0,0,0.226472,3144.31,817.684)">
            <rect x="267.045" y="437.158" width="2037.1" height="1213.26" style="fill:rgb(215,215,215);"/>
        </g>
        <g transform="matrix(-0.135159,0,0,0.0802879,3024.73,908.372)">
            <rect x="267.045" y="437.158" width="2037.1" height="1213.26" style="fill:rgb(166,166,166);"/>
        </g>
        <g transform="matrix(-0.135159,0,0,0.0802879,2718.86,908.571)">
            <rect x="267.045" y="437.158" width="2037.1" height="1213.26" style="fill:rgb(166,166,166);"/>
        </g>
        <g transform="matrix(-0.135159,0,0,0.0802879,2413,908.372)">
            <rect x="267.045" y="437.158" width="2037.1" height="1213.26" style="fill:rgb(102,102,102);"/>
        </g>
        <g transform="matrix(-0.135159,0,0,0.0802879,3024.73,1031.97)">
            <rect x="267.045" y="437.158" width="2037.1" height="1213.26" style="fill:rgb(166,166,166);"/>
        </g>
        <g transform="matrix(-0.135159,0,0,0.0802879,2718.86,1032.17)">
            <rect x="267.045" y="437.158" width="2037.1" height="1213.26" style="fill:rgb(166,166,166);"/>
        </g>
        <g transform="matrix(-0.135159,0,0,0.0802879,2413,1031.97)">
            <rect x="267.045" y="437.158" width="2037.1" height="1213.26" style="fill:rgb(102,102,102);"/>
        </g>
        <g transform="matrix(-0.468625,0,0,0.226472,3144.31,1119.24)">
            <rect x="267.045" y="437.158" width="2037.1" height="1213.26" style="fill:rgb(235,235,235);"/>
        </g>
        <g transform="matrix(-0.468625,0,0,0.226472,3144.31,1119.24)">
            <rect x="267.045" y="437.158" width="2037.1" height="1213.26" style="fill:rgb(215,215,215);"/>
        </g>
        <g transform="matrix(-0.135159,0,0,0.0802879,3024.73,1209.92)">
            <rect x="267.045" y="437.158" width="2037.1" height="1213.26" style="fill:rgb(166,166,166);"/>
        </g>
        <g transform="matrix(-0.135159,0,0,0.0802879,2718.86,1210.12)">
            <rect x="267.045" y="437.158" width="2037.1" height="1213.26" style="fill:rgb(166,166,166);"/>
        </g>
        <g transform="matrix(-0.135159,0,0,0.0802879,2413,1209.92)">
            <rect x="267.045" y="437.158" width="2037.1" height="1213.26" style="fill:rgb(102,102,102);"/>
        </g>
        <g transform="matrix(-0.135159,0,0,0.0802879,3024.73,1333.52)">
            <rect x="267.045" y="437.158" width="2037.1" height="1213.26" style="fill:rgb(166,166,166);"/>
        </g>
        <g transform="matrix(-0.135159,0,0,0.0802879,2718.86,1333.72)">
            <rect x="267.045" y="437.158" width="2037.1" height="1213.26" style="fill:rgb(166,166,166);"/>
        </g>
        <g transform="matrix(-0.135159,0,0,0.0802879,2413,1333.52)">
            <rect x="267.045" y="437.158" width="2037.1" height="1213.26" style="fill:rgb(102,102,102);"/>
        </g>
        <g transform="matrix(-0.468625,0,0,0.124602,3144.31,1464.72)">
            <rect x="267.045" y="437.158" width="2037.1" height="1213.26" style="fill:rgb(215,215,215);"/>
        </g>
        <g transform="matrix(-0.135159,0,0,0.0802879,3024.73,1510.88)">
            <rect x="267.045" y="437.158" width="2037.1" height="1213.26" style="fill:rgb(166,166,166);"/>
        </g>
        <g transform="matrix(-0.135159,0,0,0.0802879,2718.86,1511.08)">
            <rect x="267.045" y="437.158" width="2037.1" height="1213.26" style="fill:rgb(166,166,166);"/>
        </g>
        <g transform="matrix(-0.135159,0,0,0.0802879,2413,1510.88)">
            <rect x="267.045" y="437.158" width="2037.1" height="1213.26" style="fill:rgb(102,102,102);"/>
        </g>
        <g transform="matrix(-0.318478,0,0,0.634937,2684.82,-212.568)">
            <rect x="267.045" y="437.158" width="2037.1" height="1213.26" style="fill:rgb(215,215,215);"/>
        </g>
        <g transform="matrix(-0.135159,0,0,0.0802879,2605.33,56.8834)">
            <rect x="267.045" y="437.158" width="2037.1" height="1213.26" style="fill:rgb(166,166,166);"/>
        </g>
        <g transform="matrix(-0.135159,0,0,0.0802879,2299.47,56.684)">
            <rect x="267.045" y="437.158" width="2037.1" height="1213.26" style="fill:rgb(102,102,102);"/>
        </g>
        <g transform="matrix(-0.135159,0,0,0.0802879,2605.33,180.478)">
            <rect x="267.045" y="437.158" width="2037.1" height="1213.26" style="fill:rgb(166,166,166);"/>
        </g>
        <g transform="matrix(-0.135159,0,0,0.0802879,2299.47,180.278)">
            <rect x="267.045" y="437.158" width="2037.1" height="1213.26" style="fill:rgb(102,102,102);"/>
        </g>
        <g transform="matrix(-0.135159,0,0,0.0802879,2605.33,304.272)">
            <rect x="267.045" y="437.158" width="2037.1" height="1213.26" style="fill:rgb(166,166,166);"/>
        </g>
        <g transform="matrix(-0.135159,0,0,0.0802879,2299.47,304.072)">
            <rect x="267.045" y="437.158" width="2037.1" height="1213.26" style="fill:rgb(102,102,102);"/>
        </g>
        <g transform="matrix(-0.135159,0,0,0.0802879,2605.33,427.866)">
            <rect x="267.045" y="437.158" width="2037.1" height="1213.26" style="fill:rgb(166,166,166);"/>
        </g>
        <g transform="matrix(-0.135159,0,0,0.0802879,2299.47,427.667)">
            <rect x="267.045" y="437.158" width="2037.1" height="1213.26" style="fill:rgb(102,102,102);"/>
        </g>
        <g transform="matrix(-0.135159,0,0,0.0802879,2605.33,551.859)">
            <rect x="267.045" y="437.158" width="2037.1" height="1213.26" style="fill:rgb(166,166,166);"/>
        </g>
        <g transform="matrix(-0.135159,0,0,0.0802879,2299.47,551.66)">
            <rect x="267.045" y="437.158" width="2037.1" height="1213.26" style="fill:rgb(102,102,102);"/>
        </g>
        <g transform="matrix(-0.135159,0,0,0.0802879,2605.33,676.052)">
            <rect x="267.045" y="437.158" width="2037.1" height="1213.26" style="fill:rgb(166,166,166);"/>
        </g>
        <g transform="matrix(-0.135159,0,0,0.0802879,2299.47,675.853)">
            <rect x="267.045" y="437.158" width="2037.1" height="1213.26" style="fill:rgb(102,102,102);"/>
        </g>
        <g transform="matrix(-0.318478,0,0,0.634937,3390.42,-212.568)">
            <rect x="267.045" y="437.158" width="2037.1" height="1213.26" style="fill:rgb(215,215,215);"/>
        </g>
        <g transform="matrix(-0.135159,0,0,0.0802879,3310.93,56.8834)">
            <rect x="267.045" y="437.158" width="2037.1" height="1213.26" style="fill:rgb(166,166,166);"/>
        </g>
        <g transform="matrix(-0.135159,0,0,0.0802879,3005.07,56.684)">
            <rect x="267.045" y="437.158" width="2037.1" height="1213.26" style="fill:rgb(102,102,102);"/>
        </g>
        <g transform="matrix(-0.135159,0,0,0.0802879,3310.93,180.478)">
            <rect x="267.045" y="437.158" width="2037.1" height="1213.26" style="fill:rgb(166,166,166);"/>
        </g>
        <g transform="matrix(-0.135159,0,0,0.0802879,3005.07,180.278)">
            <rect x="267.045" y="437.158" width="2037.1" height="1213.26" style="fill:rgb(102,102,102);"/>
        </g>
        <g transform="matrix(-0.135159,0,0,0.0802879,3310.93,304.272)">
            <rect x="267.045" y="437.158" width="2037.1" height="1213.26" style="fill:rgb(166,166,166);"/>
        </g>
        <g transform="matrix(-0.135159,0,0,0.0802879,3005.07,304.072)">
            <rect x="267.045" y="437.158" width="2037.1" height="1213.26" style="fill:rgb(102,102,102);"/>
        </g>
        <g transform="matrix(-0.135159,0,0,0.0802879,3310.93,427.866)">
            <rect x="267.045" y="437.158" width="2037.1" height="1213.26" style="fill:rgb(166,166,166);"/>
        </g>
        <g transform="matrix(-0.135159,0,0,0.0802879,3005.07,427.667)">
            <rect x="267.045" y="437.158" width="2037.1" height="1213.26" style="fill:rgb(102,102,102);"/>
        </g>
        <g transform="matrix(-0.135159,0,0,0.0802879,3310.93,551.859)">
            <rect x="267.045" y="437.158" width="2037.1" height="1213.26" style="fill:rgb(166,166,166);"/>
        </g>
        <g transform="matrix(-0.135159,0,0,0.0802879,3005.07,551.66)">
            <rect x="267.045" y="437.158" width="2037.1" height="1213.26" style="fill:rgb(102,102,102);"/>
        </g>
        <g transform="matrix(-0.135159,0,0,0.0802879,3310.93,676.052)">
            <rect x="267.045" y="437.158" width="2037.1" height="1213.26" style="fill:rgb(166,166,166);"/>
        </g>
        <g transform="matrix(-0.135159,0,0,0.0802879,3005.07,675.853)">
            <rect x="267.045" y="437.158" width="2037.1" height="1213.26" style="fill:rgb(102,102,102);"/>
        </g>
        <g transform="matrix(1,0,0,1,-7,578.883)">
            <path d="M1363,830.757L1363,723.031L1760.27,723.031L1760.27,623L1914.17,776.894L1760.27,930.789L1760.27,830.757L1363,830.757Z"/>
        </g>
        <g transform="matrix(1,0,0,1,-7,-343.831)">
            <path d="M1363,830.757L1363,723.031L1760.27,723.031L1760.27,623L1914.17,776.894L1760.27,930.789L1760.27,830.757L1363,830.757Z"/>
        </g>
        <g transform="matrix(1,0,0,1,-20,0)">
            <path d="M1536.5,509.675L1536.5,510L1536,509.5L1536.5,509L1536.5,509.325L1642.5,509.325L1642.5,509L1643,509.5L1642.5,510L1642.5,509.675L1536.5,509.675Z"/>
        </g>
    </g>
</svg>
